# xmcd
#
# Track frame offsets: 
#        150
#        13337
#        30397
#        47699
#        63704
#        81553
#        98140
#        111520
#        135400
#        153625
#        172993
#        184177
#        204499
#        226954
#
# Disc length: 3352 seconds
#
# Revision: 3
# Processed by: cddbd v1.5.2PL0 Copyright (c) Steve Scherf et al.
# Submitted via: ExactAudioCopy v1.0b2
#
DISCID=bf0d160e
DTITLE=Fabiana Cantilo - Sol en cinco
DYEAR=1995
DGENRE=Pop-rock
TTITLE0=Na Na Na Na
TTITLE1=La arena del amor
TTITLE2=Tontos pies
TTITLE3=Guarden mi secreto
TTITLE4=Bares rio arriba
TTITLE5=Baby love
TTITLE6=(Ya fue) Nos vemos luego
TTITLE7=Te amare sin flores
TTITLE8=Querida Toto
TTITLE9=Enloquecerte
TTITLE10=Coma
TTITLE11=Loca Tuca de Dios
TTITLE12=Nada lo compra (Money can´t buy it)
TTITLE13=Nada es para siempre
EXTD=
EXTT0=
EXTT1=
EXTT2=
EXTT3=
EXTT4=
EXTT5=
EXTT6=
EXTT7=
EXTT8=
EXTT9=
EXTT10=
EXTT11=
EXTT12=
EXTT13=
PLAYORDER=
